<svg xmlns="http://www.w3.org/2000/svg" viewBox="0 0 200 200" fill="#FFFFFF">
  <!-- Imagotipo Claude: asterisco orgánico asimétrico -->
  <g transform="translate(100,100)">
    <!-- Rayo 12h (arriba) — largo -->
    <rect x="-7" y="-88" width="14" height="80" rx="7" ry="7" transform="rotate(-5)"/>
    <!-- Rayo 1h -->
    <rect x="-6.5" y="-82" width="13" height="72" rx="6.5" ry="6.5" transform="rotate(28)"/>
    <!-- Rayo 2h -->
    <rect x="-7.5" y="-85" width="15" height="76" rx="7.5" ry="7.5" transform="rotate(58)"/>
    <!-- Rayo 3h (derecha) -->
    <rect x="-7" y="-86" width="14" height="78" rx="7" ry="7" transform="rotate(88)"/>
    <!-- Rayo 4h -->
    <rect x="-6" y="-78" width="12" height="68" rx="6" ry="6" transform="rotate(120)"/>
    <!-- Rayo 5h -->
    <rect x="-7" y="-84" width="14" height="74" rx="7" ry="7" transform="rotate(148)"/>
    <!-- Rayo 6h (abajo) — largo -->
    <rect x="-7.5" y="-90" width="15" height="82" rx="7.5" ry="7.5" transform="rotate(178)"/>
    <!-- Rayo 7h -->
    <rect x="-6.5" y="-80" width="13" height="70" rx="6.5" ry="6.5" transform="rotate(208)"/>
    <!-- Rayo 8h -->
    <rect x="-7" y="-82" width="14" height="72" rx="7" ry="7" transform="rotate(238)"/>
    <!-- Rayo 9h (izquierda) -->
    <rect x="-7.5" y="-87" width="15" height="78" rx="7.5" ry="7.5" transform="rotate(268)"/>
    <!-- Rayo 10h -->
    <rect x="-6.5" y="-80" width="13" height="70" rx="6.5" ry="6.5" transform="rotate(298)"/>
    <!-- Rayo 11h -->
    <rect x="-7" y="-84" width="14" height="76" rx="7" ry="7" transform="rotate(328)"/>
    <!-- Centro -->
    <circle cx="0" cy="0" r="18"/>
  </g>
</svg>
