<svg xmlns="http://www.w3.org/2000/svg" viewBox="0 0 24 24" fill="#FFFFFF">
  <path d="M5.5 0.5 L22.5 0.5 Q23.5 0.5 23.5 1.5 L23.5 22.5 Q23.5 23.5 22.5 23.5 L1.5 23.5 Q0.5 23.5 0.5 22.5 L0.5 5.5 Z" fill="none" stroke="#FFFFFF" stroke-width="1" stroke-linejoin="round"/>
  <path d="M0.5 5.5 L5.5 5.5 L5.5 0.5" fill="none" stroke="#FFFFFF" stroke-width="1" stroke-linejoin="round"/>
  <path d="M7.5 6.5h4.8c1.3 0 2.3.38 3 1.05.7.68 1.05 1.55 1.05 2.6 0 .95-.3 1.75-.85 2.35-.5.55-1.15.88-1.95 1l3.25 4h-3.1l-3-3.8h-.8v3.8H7.5V6.5zm2.3 2v3.35h2.5c.68 0 1.2-.18 1.58-.52.37-.35.55-.82.55-1.35 0-.5-.18-.92-.5-1.22-.35-.32-.88-.48-1.48-.48H9.8z"/>
  <path fill-rule="evenodd" d="M0.5 18.2h23v4.3Q23.5 23.5 22.5 23.5L1.5 23.5Q0.5 23.5 0.5 22.5Z M5.2 19.3h1.7c.48 0 .84.12 1.08.34.22.2.34.48.34.8 0 .25-.07.47-.22.65-.12.15-.3.27-.52.33l.75 1.15H7.2l-.55-.88h-.65v.88H5.2V19.3z M6 19.95v.78h.6c.15 0 .27-.04.36-.12.08-.08.13-.19.13-.3 0-.1-.04-.2-.13-.28-.08-.07-.2-.11-.36-.11H6z M9.5 19.3h1.1l1.05 2.3 1.05-2.3h1.1l-1.7 3.3h-.9L9.5 19.3z M14.8 19.3h3.1v.72h-.95v2.55h-1.15v-2.55h-.95v-.72z"/>
</svg>
